# xmcd
#
# Track frame offsets:
#	150
#	12467
#	23110
#	35365
#	46597
#	60460
#	72215
#	82227
#	94847
#	109507
#	120955
#	131107
#	143865
#	156987
#	166355
#	175007
#
# Disc length: 2481 seconds
#
# Revision: 1
# Processed by: cddbd v1.5.2PL0 Copyright (c) Steve Scherf et al.
# Submitted via: EZCDAudioConverter 1.0.4.1
#
DISCID=cd09af10
DTITLE=Various Artist - Queens Of Country
DYEAR=1900
DGENRE=Country
TTITLE0=Lynn Anderson - Stand By Your Man
TTITLE1=Billie Jo Spears - I'm So Lonesome I Could Cry
TTITLE2=Dottie West - Crazy
TTITLE3=Patsy Cline - Just Out Of Reach
TTITLE4=Jo Ann Steele - Lovin' You, Lovin' Me
TTITLE5=Dottie West - It's A Man's World
TTITLE6=Billie Jo Spears - I Stayed Long Enough
TTITLE7=Lynn Anderson - Top Of The World
TTITLE8=Anne Murray - Both Sides Now
TTITLE9=Patsy Cline - I've Loved And Lost Again
TTITLE10=Jan Howard - I Wish I Could Fall In Love Again
TTITLE11=Lynn Anderson - I Never Promised You A Rose Garden
TTITLE12=Jo Ann Steele - Love On Borrowed Time
TTITLE13=Anne Murray - Some Birds
TTITLE14=Billie Jo Spears - You're My Man
TTITLE15=Patsy Cline - Hungry For Love
EXTD=
EXTT0=
EXTT1=
EXTT2=
EXTT3=
EXTT4=
EXTT5=
EXTT6=
EXTT7=
EXTT8=
EXTT9=
EXTT10=
EXTT11=
EXTT12=
EXTT13=
EXTT14=
EXTT15=
PLAYORDER=
